# xmcd
#
# Track frame offsets:
#	182
#	9722
#	20857
#	33292
#	45700
#	57412
#	71742
#	80862
#	92742
#	105267
#	118290
#	130785
#	142010
#	152667
#	164075
#	174000
#	185350
#	197220
#
# Disc length: 2801 seconds
#
# Revision: 0
# Processed by: cddbd v1.5.1PL0 Copyright (c) Steve Scherf et al.
# Submitted via: dBpowerAMP V4.0
#
DISCID=000aef12
DTITLE=George Jones - Tender Years For The Roses
DYEAR=2000
DGENRE=Country
TTITLE0=The Race Is On
TTITLE1=Tender Years
TTITLE2=She Thinks I Still Care
TTITLE3=TakeMe
TTITLE4=WhiteLightning
TTITLE5=A Good Year For The Roses
TTITLE6=The Love Bug
TTITLE7=Milwalkee Here I Come
TTITLE8=Lets Get Together (One More Time)
TTITLE9=When THe GRass Grows Over Me
TTITLE10=If My Heart Had Windows
TTITLE11=4033
TTITLE12=Treasure Of Love
TTITLE13=I'll Share My World With  You
TTITLE14=Ive Got 5 Dollars And It's Saturday Night
TTITLE15=Old Brush Arbors
TTITLE16=Small Time Laboring Man
TTITLE17=Things Have Gone To Pieces
EXTD=
EXTT0=
EXTT1=
EXTT2=
EXTT3=
EXTT4=
EXTT5=
EXTT6=
EXTT7=
EXTT8=
EXTT9=
EXTT10=
EXTT11=
EXTT12=
EXTT13=
EXTT14=
EXTT15=
EXTT16=
EXTT17=
PLAYORDER=
